<svg width="18" height="18" viewBox="0 0 18 18" fill="none" xmlns="http://www.w3.org/2000/svg">
<path d="M9 17.9999C6.48333 17.9999 4.354 17.1289 2.612 15.3869C0.870667 13.6456 0 11.5166 0 8.9999C0 6.6999 0.75 4.7039 2.25 3.0119C3.75 1.32057 5.66667 0.333236 8 0.0499023C8.41667 -9.76585e-05 8.74167 0.149902 8.975 0.499902C9.20833 0.849902 9.2 1.21657 8.95 1.5999C8.66667 2.03324 8.454 2.49157 8.312 2.9749C8.17067 3.45824 8.1 3.96657 8.1 4.4999C8.1 5.9999 8.625 7.2749 9.675 8.3249C10.725 9.3749 12 9.8999 13.5 9.8999C14.0167 9.8999 14.5293 9.8249 15.038 9.6749C15.546 9.5249 16 9.31657 16.4 9.0499C16.75 8.81657 17.1083 8.8039 17.475 9.0119C17.8417 9.22057 18 9.5499 17.95 9.9999C17.7167 12.2999 16.7377 14.2082 15.013 15.7249C13.2877 17.2416 11.2833 17.9999 9 17.9999Z" fill="#246AFE"/>
</svg>
